<?xml version="1.0" encoding="UTF-8" standalone="no"?>
<!DOCTYPE svg PUBLIC "-//W3C//DTD SVG 1.1//EN" "http://www.w3.org/Graphics/SVG/1.1/DTD/svg11.dtd">
<svg width="100%" height="100%" viewBox="0 0 128 128" version="1.1" xmlns="http://www.w3.org/2000/svg" xmlns:xlink="http://www.w3.org/1999/xlink" xml:space="preserve" xmlns:serif="http://www.serif.com/" style="fill-rule:evenodd;clip-rule:evenodd;stroke-linejoin:round;stroke-miterlimit:2;">
    <g id="layer1" transform="matrix(2.83465,0,0,2.83465,10.6003,-301.035)">
        <path id="path1" d="M20.034,150.462C16.624,150.11 14.054,148.482 12.707,145.821C11.928,144.282 11.617,142.709 11.613,140.291C11.61,138.66 11.621,138.53 11.779,138.353C12.189,137.893 13.26,137.779 13.941,138.123C14.428,138.369 14.528,138.587 14.531,139.414C14.538,141.255 14.768,143.206 15.096,144.195C15.563,145.605 16.631,146.922 17.794,147.522C19.114,148.202 20.967,148.519 22.645,148.352C24.975,148.119 26.75,147.245 28.503,145.467C30.125,143.822 31.281,141.576 31.683,139.287C31.932,137.87 31.773,131.879 31.029,114.703C30.771,108.741 30.766,108.437 30.905,108.178C31.155,107.713 31.413,107.622 32.476,107.622C33.546,107.622 33.833,107.717 34.054,108.144C34.199,108.424 34.296,111.192 34.636,124.64C34.97,137.892 34.97,139.145 34.632,140.799C34.193,142.944 33.475,144.19 31.25,146.667C30.083,147.965 29.543,148.388 28.289,148.984C25.845,150.144 22.593,150.727 20.034,150.462L20.034,150.462ZM3.478,149.493L3.27,149.286L3.27,109.392L3.478,109.184C3.675,108.987 3.737,108.977 4.694,108.977C5.671,108.977 5.71,108.984 5.926,109.2C6.146,109.42 6.149,109.438 6.149,110.639C6.149,111.308 6.17,111.855 6.195,111.855C6.22,111.855 6.691,111.532 7.242,111.138C10.078,109.104 13.106,107.547 14.972,107.163C16.571,106.835 18.842,107.147 20.714,107.953C22.293,108.633 23.957,110.009 24.882,111.401C26.459,113.773 27.333,116.901 27.457,120.618C27.535,122.96 27.298,124.817 26.705,126.498C25.365,130.296 22.172,132.972 17.791,133.968C15.55,134.477 10.663,133.958 7.633,132.889C7.166,132.724 6.717,132.568 6.636,132.542C6.506,132.5 6.487,132.557 6.487,132.991C6.486,133.264 6.41,136.917 6.318,141.108C6.226,145.299 6.151,148.853 6.15,149.007C6.149,149.189 6.077,149.358 5.941,149.493C5.743,149.691 5.684,149.701 4.71,149.701C3.736,149.701 3.676,149.691 3.478,149.493ZM16.257,131.533C20.374,130.667 23.021,127.981 23.97,123.707C24.157,122.864 24.229,120.682 24.107,119.562C23.887,117.547 23.351,115.542 22.618,113.994C21.586,111.816 19.988,110.353 18.087,109.845C17.417,109.667 15.631,109.648 14.743,109.81C12.705,110.182 11.097,111.046 9.528,112.611C8.096,114.04 7.086,115.737 6.537,117.636C6.192,118.832 6.136,119.575 6.228,121.735C6.364,124.901 6.69,126.771 7.333,128.081C8.194,129.834 10.717,131.335 13.351,131.662C14.125,131.759 15.471,131.699 16.257,131.533L16.257,131.533Z" style="fill-rule:nonzero;" stroke="white" fill="white" />
    </g>
</svg>
