<?xml version="1.0" encoding="UTF-8" standalone="no"?>
<!-- Created with Inkscape (http://www.inkscape.org/) -->

<svg
   width="8.0602064in"
   height="3.276258in"
   viewBox="0 0 204.72924 83.21695"
   version="1.1"
   id="svg1"
   xml:space="preserve"
   xmlns="http://www.w3.org/2000/svg"
   xmlns:svg="http://www.w3.org/2000/svg"><defs
     id="defs1" /><g
     id="layer1"
     transform="translate(-2.6775832,-107.03079)"><path
       style="fill:currentColor"
       d="m 171.33358,190.12968 c -2.75107,-0.55485 -4.68459,-2.70038 -5.95705,-6.61021 -0.73008,-2.2433 -1.15323,-4.67382 -1.46562,-8.41822 -0.18367,-2.20159 -0.21202,-8.57762 -0.0448,-10.07533 0.27285,-2.44376 0.4776,-3.64747 0.87774,-5.16037 0.97824,-3.69857 2.58278,-6.0815 4.87849,-7.24517 2.02442,-1.02614 4.738,-1.05908 6.85028,-0.0832 3.41932,1.57982 5.98149,5.93537 7.21596,12.26671 0.50448,2.58742 0.63315,3.92234 0.63343,6.57198 3.3e-4,3.08386 -0.25641,5.31488 -0.92492,8.03745 -1.47056,5.98897 -4.13416,9.69267 -7.57618,10.53455 -1.26191,0.30865 -3.42396,0.39622 -4.48734,0.18176 z m 3.52642,-2.8426 c 1.32658,-0.64219 2.928,-3.68092 3.7965,-7.20397 0.56259,-2.28214 0.78579,-4.00181 0.86086,-6.63286 0.17626,-6.17701 -1.53075,-13.81611 -3.78512,-16.93889 -0.86857,-1.20315 -1.71016,-1.75011 -2.70532,-1.75821 -0.72544,-0.006 -1.14851,0.12606 -1.79301,0.55927 -1.54044,1.03544 -2.50092,3.33147 -2.96542,7.08883 -0.16778,1.35716 -0.14104,6.49369 0.0441,8.46667 0.79035,8.42359 1.24141,11.16142 2.22186,13.48614 0.46774,1.10907 1.11356,2.00622 1.83017,2.5424 0.73229,0.54792 1.81905,0.71804 2.49541,0.39062 z m -41.49444,2.69294 c -0.22526,-0.12765 -0.4041,-0.32589 -0.55034,-0.61004 l -0.21664,-0.42093 -0.0552,-6.52173 c -0.062,-7.32888 -0.13909,-9.73975 -0.45741,-14.31107 -0.23988,-3.44479 -0.6342,-6.06244 -1.09942,-7.29844 -0.55178,-1.46594 -1.55112,-2.29274 -2.9895,-2.47335 -3.07149,-0.38567 -7.72701,2.60786 -9.08689,5.84292 -0.35643,0.84792 -0.71883,3.5179 -0.924,6.80754 -0.12175,1.95202 -0.0515,6.85292 0.13358,9.31333 0.19624,2.60939 0.25459,5.65297 0.13391,6.985 -0.0864,0.95383 -0.13707,1.19456 -0.30607,1.45455 -0.40442,0.62214 -1.57649,1.25263 -2.33107,1.25396 -0.88915,0.002 -0.9908,-0.31124 -1.00397,-3.08951 -0.008,-1.74123 -0.083,-3.67251 -0.64038,-16.55233 -0.25292,-5.84412 -0.50254,-12.00246 -0.55471,-13.6852 -0.10893,-3.51371 -0.1497,-3.26936 0.67265,-4.03072 1.15316,-1.06763 2.46234,-0.98705 3.66427,0.22551 0.74647,0.75307 0.79296,0.96296 0.77505,3.49924 -0.008,1.12924 8.8e-4,2.05317 0.0197,2.05317 0.0188,0 0.27296,-0.14597 0.56483,-0.32437 0.29186,-0.1784 0.9688,-0.5567 1.50432,-0.84067 3.99451,-2.11815 7.61582,-2.84429 10.20357,-2.04598 1.69193,0.52195 3.17627,1.68089 3.87726,3.02729 0.79404,1.5251 1.55854,5.39584 1.95935,9.92039 0.37304,4.21102 0.60722,12.30734 0.50411,17.42876 l -0.0585,2.90843 -0.26304,0.38791 c -0.71365,1.05244 -2.53757,1.62782 -3.47539,1.09634 z m 63.53736,0.0987 c -2.18776,-0.33642 -4.38298,-1.73754 -6.15498,-3.92847 -1.02396,-1.26605 -2.34813,-3.66184 -3.14834,-5.69624 -0.60557,-1.53957 -0.6048,-2.23013 0.003,-2.78101 0.32577,-0.29522 0.56597,-0.38251 1.05251,-0.38251 0.58231,0 0.9754,0.12733 1.5389,0.49848 0.7705,0.50749 1.04924,0.92838 2.34136,3.53528 1.37395,2.77202 2.12627,3.97796 2.98982,4.7926 0.71079,0.67052 1.18861,0.91526 2.02102,1.03518 1.9867,0.28622 3.46732,-0.76774 4.23275,-3.01302 0.32639,-0.95745 0.56139,-2.43076 0.56373,-3.53443 0.006,-2.73583 -1.32758,-5.76362 -3.1197,-7.08398 -0.74731,-0.55059 -1.13492,-0.74338 -1.95415,-0.97191 -0.5887,-0.16422 -0.88837,-0.18617 -2.69437,-0.19731 -1.94771,-0.012 -2.06289,-0.022 -2.77677,-0.24078 -3.70822,-1.13635 -5.04377,-4.04825 -4.03699,-8.80184 0.36188,-1.70865 0.89344,-3.6938 1.24052,-4.63284 1.65783,-4.48534 5.15157,-6.75131 10.14504,-6.57985 1.48073,0.0508 2.01699,0.1881 3.00983,0.77041 1.3269,0.77825 2.33408,2.10091 2.98937,3.92577 0.29673,0.82632 0.51003,1.68909 0.77419,3.13143 0.20964,1.14465 0.21375,1.22022 0.0816,1.49862 -0.50751,1.06949 -2.80054,1.64792 -4.12643,1.0409 -0.83325,-0.38147 -1.0221,-0.7673 -1.70873,-3.49095 -0.61487,-2.43904 -1.34151,-3.68757 -2.14175,-3.68 -0.43291,0.004 -0.55857,0.0865 -1.67992,1.10183 -1.06597,0.96515 -1.58394,1.6487 -2.1463,2.83237 -1.12726,2.37268 -1.89273,6.071 -1.61998,7.82677 0.12554,0.80812 0.32959,1.26217 0.75103,1.67115 0.50663,0.49168 1.14171,0.67749 2.98091,0.87216 1.78567,0.18901 2.68461,0.34486 3.7565,0.65127 1.99339,0.56983 3.53339,1.46163 4.76301,2.7582 1.78509,1.88229 2.57847,4.19537 2.57723,7.51392 -8.9e-4,2.37726 -0.23696,3.62105 -0.97223,5.12233 -1.10762,2.26155 -2.91359,3.60093 -5.72184,4.24352 -1.0251,0.23457 -2.91645,0.33035 -3.81,0.19295 z M 91.531747,189.9331 c -0.469676,-0.2202 -0.776575,-0.61136 -0.859203,-1.09509 -0.126239,-0.73903 -0.03847,-5.01959 0.182238,-8.88797 0.655067,-11.48142 0.633531,-16.4783 -0.08944,-20.75208 -0.270075,-1.59653 -0.735287,-2.1211 -1.592174,-1.79531 -0.480916,0.18285 -1.271099,1.23368 -1.594101,2.11993 -0.209301,0.57428 -0.784589,2.84845 -1.070893,4.23334 -0.581751,2.814 -0.835387,4.7323 -0.928977,7.02606 -0.06228,1.52626 -0.07462,1.60919 -0.287423,1.93076 -0.35643,0.5386 -0.862371,0.73912 -1.842192,0.73012 -0.864563,-0.008 -1.333358,-0.13468 -1.868897,-0.50525 -0.476635,-0.3298 -0.645096,-0.72116 -0.708679,-1.64636 -0.144099,-2.09677 -0.636628,-4.49656 -1.737686,-8.46667 -1.259929,-4.54294 -1.641562,-5.55571 -2.419613,-6.42109 -0.530867,-0.59045 -0.956365,-0.80394 -1.606065,-0.80584 -0.983079,-0.003 -1.964468,0.7655 -2.572248,2.01392 -0.560682,1.15167 -0.640281,1.61286 -0.622087,3.60435 0.02022,2.21356 0.08149,3.33664 0.739016,13.54666 0.603958,9.37823 0.706567,11.20182 0.740153,13.15408 l 0.02311,1.34308 -0.320997,0.27758 c -0.40221,0.34782 -0.861076,0.46526 -1.817794,0.46526 -0.926732,0 -1.542198,-0.17228 -1.949769,-0.54579 l -0.306624,-0.28101 -0.06245,-1.87079 c -0.072,-2.15661 -0.125839,-3.09619 -0.580471,-10.12941 -0.73949,-11.43999 -0.94063,-16.55638 -0.768882,-19.558 0.114261,-1.99693 0.225967,-2.6115 0.563279,-3.09899 0.784206,-1.13333 2.8871,-2.01541 5.434537,-2.27957 1.332386,-0.13816 3.043626,0.1526 4.127176,0.70125 1.422997,0.72053 2.658538,1.98376 3.539656,3.61898 0.585827,1.0872 0.967605,2.23296 1.382387,4.14867 0.03308,0.15277 0.111769,-0.0494 0.282827,-0.72657 0.353522,-1.39954 0.804467,-2.66635 1.35469,-3.80562 0.606122,-1.25502 1.120434,-2.02535 1.852508,-2.77466 1.124209,-1.15068 2.086865,-1.59217 3.46811,-1.59053 0.453193,5.4e-4 1.0326,0.0451 1.287571,0.0991 1.895357,0.40116 3.053905,1.79095 3.523084,4.22628 0.11558,0.59993 0.428161,2.8187 0.620248,4.40266 0.353058,2.91135 0.477469,10.13465 0.35046,20.34772 -0.105905,8.51601 -0.05789,7.92411 -0.686389,8.46208 -0.522318,0.44709 -1.179593,0.67269 -2.073818,0.71181 -0.619764,0.0271 -0.82587,0.003 -1.10417,-0.12709 z m 55.787233,0.0617 c -1.09605,-0.1832 -2.19518,-0.77549 -2.87003,-1.54658 -1.14052,-1.30318 -1.75163,-3.72112 -1.6236,-6.42392 0.0812,-1.7137 0.46917,-2.77334 1.29022,-3.52374 0.58001,-0.53009 1.11704,-0.73555 2.24773,-0.85997 1.78349,-0.19625 3.23212,0.19785 3.23212,0.8793 0,0.2979 -0.29933,0.74475 -0.74167,1.10722 -0.80022,0.65572 -1.15141,1.47771 -1.15483,2.70292 -0.002,0.55677 0.0744,1.02156 0.34467,2.11023 0.39116,1.57546 0.4997,1.87497 0.81539,2.25014 0.17007,0.20213 0.29119,0.26422 0.51533,0.26422 0.43153,0 0.71131,-0.17995 1.32471,-0.85204 1.25378,-1.37373 2.95704,-4.78739 3.65148,-7.31829 0.92954,-3.38767 0.8178,-7.16892 -0.29648,-10.033 -0.36309,-0.93326 -0.25833,-0.88022 -1.26854,-0.64235 -2.53607,0.59714 -4.71647,0.76576 -6.64055,0.51353 -1.89908,-0.24894 -3.18979,-0.81618 -4.23301,-1.86033 -1.07906,-1.08 -1.55317,-2.34033 -1.62839,-4.32881 -0.0866,-2.288 0.2515,-4.14678 1.05006,-5.77392 0.39283,-0.80041 0.57677,-1.06669 1.11697,-1.61698 0.97193,-0.9901 2.03079,-1.53089 3.56861,-1.82261 0.95913,-0.18195 2.7198,-0.16594 4.27475,0.0389 0.6985,0.092 1.2971,0.16743 1.33023,0.16761 0.0331,1.8e-4 0.10068,-0.14984 0.1501,-0.33339 0.22614,-0.83981 1.6476,-1.42994 2.87381,-1.19307 1.381,0.26677 2.30206,1.19066 2.54391,2.55175 0.0446,0.25119 0.14169,1.23776 0.21567,2.19238 0.26978,3.48129 0.91005,8.67876 1.64791,13.37733 0.58704,3.73817 0.62263,4.08759 0.56485,5.54567 -0.10345,2.61022 -0.6501,4.49139 -2.23733,7.69916 -1.25349,2.5333 -1.86632,3.55185 -2.63492,4.37935 -0.93071,1.00202 -1.79951,1.54847 -3.12737,1.967 -1.35256,0.42631 -3.10617,0.58217 -4.3018,0.38233 z m 2.42176,-24.29695 c 1.46941,-0.2384 2.51731,-1.35853 2.9256,-3.12723 0.16698,-0.72335 0.1834,-2.30835 0.0443,-4.27566 -0.0944,-1.33567 -0.1899,-1.76036 -0.45521,-2.02512 -0.28607,-0.28548 -2.02152,-0.59358 -3.36233,-0.59691 l -1.06214,-0.003 -0.66521,0.32847 c -0.8502,0.41982 -1.77103,1.30247 -2.15486,2.06551 -0.43564,0.86603 -0.54564,1.43957 -0.49081,2.55902 0.13592,2.77478 1.32666,4.58681 3.27615,4.98551 0.9095,0.18601 1.25061,0.20163 1.94449,0.0891 z m -94.285967,24.212 c -1.665488,-0.12606 -4.271571,-0.65453 -5.617856,-1.13922 -2.420196,-0.87132 -3.709397,-2.07638 -4.207267,-3.93267 -0.217296,-0.81019 -0.211037,-4.27278 0.0098,-5.41867 0.442024,-2.29365 1.366176,-4.0451 2.976383,-5.64083 1.429157,-1.41631 2.903407,-2.2905 4.587663,-2.72036 0.80136,-0.20452 3.941781,-0.20169 5.100092,0.005 0.442384,0.0788 0.832909,0.1434 0.867834,0.14358 0.09426,5.1e-4 0.07626,-4.6828 -0.02327,-6.05332 -0.137413,-1.89219 -0.395609,-3.50695 -0.73105,-4.572 -0.19015,-0.60374 -0.995612,-2.17739 -1.488983,-2.90905 -0.57442,-0.85186 -1.313936,-1.55852 -1.96792,-1.88047 -0.496392,-0.24438 -0.596344,-0.26372 -1.202502,-0.2327 -0.945804,0.0484 -1.472342,0.3266 -2.449403,1.29413 -1.200888,1.18917 -2.486818,3.27286 -3.08501,4.99888 -0.36002,1.0388 -0.555673,1.88047 -0.923522,3.97286 -0.422846,2.40523 -0.44745,2.49364 -0.784372,2.81857 -0.642061,0.6192 -2.007146,0.8611 -2.727336,0.4833 -0.668787,-0.35084 -0.683291,-0.40421 -0.673256,-2.47777 0.01027,-2.12159 0.123032,-3.44516 0.417895,-4.90499 0.590943,-2.92568 1.741299,-5.18681 3.56885,-7.01489 1.538354,-1.53881 3.138669,-2.43439 4.852797,-2.71576 0.74425,-0.12217 0.980557,-0.1277 1.680017,-0.0394 1.046046,0.13212 1.818888,0.36342 2.743656,0.82112 2.26351,1.12031 4.375038,3.35577 5.260626,5.56939 0.730091,1.82494 1.968083,8.6786 2.350339,13.01174 0.160017,1.81391 0.135884,5.60046 -0.04533,7.112 -0.456393,3.80688 -1.538346,7.02439 -3.04916,9.06759 -1.381831,1.86876 -2.940707,2.54344 -5.439712,2.3543 z m 0.592922,-3.68117 c 1.40533,-0.36004 2.17773,-1.32678 2.633192,-3.29572 0.184523,-0.79768 0.699516,-3.65094 0.800902,-4.4373 0.118595,-0.91983 0.117701,-2.50323 -0.0017,-3.06011 -0.192696,-0.89851 -0.732015,-1.1625 -2.531145,-1.23897 -0.831026,-0.0353 -1.17508,-0.0144 -1.601897,0.0972 -1.826658,0.47797 -3.038025,1.75262 -4.267513,4.49047 -0.707944,1.57646 -1.034496,2.6784 -1.127424,3.80443 -0.16953,2.05424 0.946161,3.35833 3.147525,3.67902 0.870433,0.12681 2.378669,0.10682 2.948087,-0.0391 z m 47.239485,3.69103 c -0.40762,-0.17019 -0.42255,-0.30394 -0.48229,-4.31975 -0.0308,-2.07222 -0.0935,-5.69172 -0.1394,-8.04334 -0.22157,-11.36352 -0.24572,-14.07172 -0.12802,-14.35341 0.21781,-0.52131 1.03724,-0.97819 2.12903,-1.18709 1.14457,-0.21899 1.83675,-0.13581 2.33107,0.28012 l 0.26991,0.22712 -0.0575,3.2198 c -0.0316,1.77089 -0.13271,5.82965 -0.22463,9.01946 -0.0919,3.18982 -0.19012,7.30462 -0.21823,9.144 -0.0281,1.83939 -0.0844,3.47804 -0.12509,3.64146 -0.28826,1.15773 -2.50646,2.72584 -3.35483,2.37163 z M 4.9713681,189.65084 c -0.5410534,-0.37237 -0.5904488,-0.50608 -0.8094708,-2.19117 -0.8047324,-6.19138 -1.4843141,-16.93146 -1.4843141,-23.45804 0,-4.03398 0.1808189,-6.36617 0.5915462,-7.62973 0.9310857,-2.8644 5.3653798,-4.53472 11.5611136,-4.35488 4.203844,0.12203 8.23198,1.00956 10.70734,2.35918 1.037188,0.5655 1.850787,1.2394 2.254491,1.86739 0.679799,1.05747 0.477298,2.67174 -0.408665,3.25773 -0.319341,0.21122 -0.423737,0.2329 -1.12016,0.23258 -0.706434,-3.3e-4 -0.818902,-0.0247 -1.402999,-0.30406 -0.807834,-0.38637 -1.087323,-0.62606 -1.561159,-1.33881 -0.488937,-0.73546 -1.469765,-1.66747 -2.230319,-2.11931 -0.742644,-0.4412 -2.004521,-0.89842 -3.108855,-1.12646 -1.014735,-0.20953 -3.339826,-0.24857 -4.360334,-0.0732 -2.348968,0.40362 -4.169585,1.1653 -5.2086588,2.17912 -0.6656244,0.64945 -0.7532297,0.81862 -0.9636449,1.86087 -0.2848274,1.41083 -0.3816651,2.61059 -0.385375,4.77455 -0.00469,2.73429 0.1887368,4.0653 0.6746996,4.64284 0.2785686,0.33106 1.3820345,0.89606 2.162437,1.10721 1.6934551,0.45821 3.2224351,0.45062 7.5728761,-0.0376 1.722235,-0.19328 3.112116,-0.19942 3.643349,-0.0161 0.498155,0.1719 1.005059,0.56425 1.189305,0.92054 0.192995,0.37321 0.171611,1.01653 -0.04655,1.40054 -0.229514,0.40399 -0.764166,0.81105 -1.314767,1.001 -0.534648,0.18445 -2.202897,0.2581 -8.505326,0.3755 -4.0525833,0.0755 -4.7132142,0.10545 -4.8260002,0.21887 -0.109566,0.11018 -0.1287799,0.39407 -0.1189486,1.75748 0.010369,1.43799 0.066967,2.05586 0.4893196,5.34179 0.7323885,5.69802 0.8429682,7.45265 0.5105812,8.10165 -0.1799918,0.35144 -0.7373373,0.80173 -1.3618284,1.10025 -0.4526907,0.21639 -0.7214774,0.28565 -1.2161311,0.31334 -0.5610691,0.0314 -0.6685947,0.0124 -0.9235484,-0.16303 z m 29.2914179,0.0409 c -0.490302,-0.17938 -1.123452,-0.81595 -1.248779,-1.25553 -0.05311,-0.18627 -0.12062,-1.08162 -0.15003,-1.98967 -0.09282,-2.86591 -0.647992,-12.94172 -1.525481,-27.686 -0.139667,-2.34679 -0.203763,-5.48744 -0.118432,-5.80309 0.179384,-0.66355 0.752447,-1.05725 1.552827,-1.06681 0.862671,-0.0103 1.597833,0.28226 2.075072,0.82581 0.474877,0.54085 0.522195,0.75528 0.604586,2.73969 0.110477,2.66088 0.244987,4.461 1.173758,15.70807 1.133036,13.72063 1.296916,16.34658 1.067344,17.10267 -0.16774,0.55244 -0.516151,0.96306 -1.076964,1.26926 -0.391254,0.21361 -0.557936,0.2507 -1.215437,0.27045 -0.541342,0.0163 -0.871016,-0.017 -1.138464,-0.11485 z m 69.117374,-30.70473 c -0.69403,-0.33253 -1.06284,-1.00482 -1.22669,-2.23603 -0.27654,-2.07806 0.27791,-3.6602 1.46106,-4.16917 0.36836,-0.15847 0.55307,-0.18469 1.08436,-0.15393 1.50076,0.0869 2.64008,1.10039 2.89206,2.57271 0.0854,0.4989 0.0786,0.68152 -0.0461,1.24142 -0.20752,0.93148 -0.63626,1.74106 -1.1901,2.24724 -0.51565,0.47128 -0.89187,0.60248 -1.9078,0.66534 -0.54839,0.0339 -0.69389,0.0111 -1.06676,-0.16758 z M 20.03425,150.4624 c -3.41005,-0.35258 -5.979818,-1.98053 -7.327148,-4.64176 -0.778767,-1.53821 -1.090176,-3.11189 -1.094244,-5.52968 -0.0027,-1.63051 0.0084,-1.76071 0.166392,-1.93785 0.40986,-0.45964 1.481097,-0.57362 2.161939,-0.23003 0.486812,0.24568 0.586679,0.46432 0.589735,1.29117 0.0068,1.84086 0.237376,3.79213 0.564912,4.78071 0.467196,1.41011 1.535061,2.72682 2.697899,3.32661 1.320015,0.68085 3.17284,0.99792 4.851003,0.83016 2.330533,-0.23299 4.105079,-1.10685 5.858077,-2.88475 1.622198,-1.64525 2.778104,-3.89139 3.180198,-6.17973 0.249081,-1.41754 0.0898,-7.40865 -0.653606,-24.58408 -0.258075,-5.9625 -0.26387,-6.26639 -0.12445,-6.52528 0.250235,-0.46466 0.508332,-0.55597 1.571394,-0.55597 1.069367,0 1.356747,0.0952 1.577704,0.52244 0.144767,0.27995 0.242377,3.04778 0.581735,16.49556 0.334431,13.25257 0.33411,14.50504 -0.0041,16.15926 -0.438609,2.14508 -1.156743,3.39111 -3.381967,5.86802 -1.166254,1.29817 -1.706924,1.72123 -2.960441,2.31645 -2.444562,1.16077 -5.696417,1.74329 -8.255,1.47875 z M 3.4780681,149.49343 3.2702499,149.28561 v -19.94669 -19.9467 l 0.2078182,-0.20782 c 0.1973792,-0.19738 0.2584661,-0.20782 1.2161212,-0.20782 0.9765419,0 1.0153341,0.007 1.2315151,0.22322 0.2204516,0.22045 0.2232121,0.23825 0.2232121,1.43933 0,0.66887 0.020754,1.21612 0.046119,1.21612 0.025366,0 0.4963112,-0.32283 1.0465459,-0.71739 2.8360486,-2.03369 5.8645546,-3.59075 7.7302656,-3.97441 1.599465,-0.32891 3.869808,-0.0168 5.741746,0.78936 1.579628,0.68027 3.243129,2.05633 4.168379,3.4481 1.576958,2.37209 2.450903,5.50018 2.575198,9.21734 0.07831,2.34188 -0.159257,4.19892 -0.752148,5.87954 -1.340062,3.79856 -4.533095,6.47428 -8.914439,7.47017 -2.240884,0.50937 -7.127291,-0.01 -10.1574978,-1.07942 -0.4670429,-0.16484 -0.915844,-0.32101 -0.9973356,-0.34704 -0.1295778,-0.0414 -0.1483003,0.015 -0.1492316,0.44937 -5.857e-4,0.27319 -0.076307,3.92571 -0.1682684,8.11671 -0.091962,4.191 -0.1676828,7.74556 -0.1682685,7.89902 -6.959e-4,0.18233 -0.073074,0.35102 -0.208883,0.48683 -0.1977292,0.19773 -0.2575159,0.20782 -1.2315152,0.20782 -0.9739992,0 -1.033786,-0.0101 -1.2315148,-0.20782 z M 16.257399,131.53328 c 4.116771,-0.86599 6.763865,-3.55222 7.712286,-7.82632 0.187095,-0.84314 0.259315,-3.0249 0.137201,-4.14478 -0.219749,-2.01524 -0.755845,-4.01988 -1.488962,-5.56771 -1.031703,-2.17822 -2.630113,-3.64195 -4.531007,-4.14921 -0.66949,-0.17866 -2.456135,-0.19754 -3.344334,-0.0353 -2.037872,0.37213 -3.645782,1.23592 -5.2148874,2.80148 -1.4317974,1.42856 -2.4419355,3.12574 -2.9905497,5.02456 -0.345604,1.19617 -0.4015801,1.9392 -0.308811,4.09915 0.1359532,3.16541 0.4617202,5.03615 1.1050334,6.34573 0.8609968,1.75272 3.3834197,3.25408 6.0171377,3.58142 0.774047,0.0962 2.120378,0.0365 2.906893,-0.12897 z m 54.207256,16.97993 c -2.576989,-0.40638 -4.155476,-1.42526 -5.052912,-3.26153 -0.627947,-1.28486 -0.873063,-2.86496 -0.749985,-4.83463 0.0805,-1.28829 0.328559,-2.34108 0.75496,-3.20413 0.824006,-1.66783 2.04514,-2.47039 3.893532,-2.55893 3.343234,-0.16015 4.928861,1.38315 4.244689,4.13139 -0.704113,2.82834 -2.640264,4.04024 -5.283698,3.30724 -0.310951,-0.0862 -0.585381,-0.13676 -0.609844,-0.11229 -0.02446,0.0245 -0.04448,0.29791 -0.04448,0.60766 0,1.44333 0.77673,2.59415 2.120253,3.14143 0.355952,0.145 0.637092,0.18898 1.22408,0.19149 0.912486,0.004 1.426686,-0.16024 2.327728,-0.74313 1.094446,-0.70799 1.438931,-0.84911 2.001392,-0.8199 0.278065,0.0144 0.695487,0.50339 0.851044,0.99688 0.120107,0.38102 0.124664,0.49736 0.03164,0.80783 -0.127375,0.42514 -0.512794,0.98887 -0.842986,1.233 -0.363855,0.26901 -1.527481,0.83279 -2.041128,0.98894 -0.554448,0.16855 -2.119323,0.23985 -2.824289,0.12868 z m -0.569969,-8.94138 c 0.707663,-0.35265 0.935437,-0.91062 0.650302,-1.59305 -0.180313,-0.43155 -0.473419,-0.5866 -1.004684,-0.53148 -0.736744,0.0764 -1.100236,0.2718 -1.4936,0.80275 -0.298572,0.403 -0.349369,0.52963 -0.328033,0.81775 0.02071,0.27966 0.07695,0.37565 0.312933,0.53419 0.425321,0.28572 1.256178,0.27227 1.863082,-0.0302 z m -16.813943,8.76608 c -0.148412,-0.0429 -0.348437,-0.17799 -0.4445,-0.30012 -0.159514,-0.20279 -0.174648,-0.33669 -0.17452,-1.54413 2.61e-4,-2.46214 0.241725,-10.261 0.434144,-14.02208 0.06594,-1.28889 0.132825,-1.93644 0.217129,-2.10217 0.213358,-0.41942 0.875812,-0.58413 1.571888,-0.39082 0.62712,0.17416 0.697841,0.49109 0.8541,3.82766 0.06273,1.33944 0.132915,2.4542 0.15597,2.47726 0.02305,0.023 0.267002,-0.0739 0.542106,-0.21555 1.002803,-0.51619 2.178018,-0.51301 3.813938,0.0103 1.190461,0.38084 1.827529,0.93342 2.402338,2.08371 0.517615,1.03584 0.589407,1.54622 0.688249,4.89291 0.04951,1.6764 0.06839,3.429 0.04194,3.89466 -0.04462,0.78578 -0.06417,0.8596 -0.271888,1.02653 -0.312612,0.25122 -0.818045,0.3857 -1.431908,0.38098 -0.58957,-0.005 -0.928765,-0.10832 -1.207651,-0.36957 -0.1753,-0.16422 -0.189949,-0.2499 -0.1836,-1.07386 0.0038,-0.49248 0.03371,-1.36221 0.06649,-1.93275 0.03277,-0.57054 0.03719,-1.84918 0.0098,-2.84144 -0.04667,-1.69203 -0.06264,-1.8298 -0.256989,-2.21792 -0.262539,-0.5243 -0.549721,-0.73199 -1.082991,-0.78323 -1.196038,-0.11492 -2.433676,0.59966 -2.987693,1.72503 -0.306154,0.62189 -0.308808,0.64237 -0.574576,4.43523 -0.08973,1.28059 -0.209363,2.45626 -0.265847,2.61261 -0.06994,0.1936 -0.192697,0.32188 -0.384856,0.40217 -0.314451,0.13138 -1.117345,0.14426 -1.531102,0.0246 z m -8.054011,-0.20268 c -0.138147,-0.11624 -0.322046,-0.37342 -0.408663,-0.5715 -0.145153,-0.33194 -0.159443,-0.68085 -0.18248,-4.45552 l -0.02499,-4.09538 -0.313673,0.0492 c -2.333875,0.36583 -3.011143,0.264 -3.537843,-0.5319 -0.461305,-0.69707 -0.326353,-1.39899 0.370406,-1.92656 0.520288,-0.39395 1.085538,-0.53646 2.351948,-0.59299 l 1.10685,-0.0494 0.09029,-2.46592 c 0.0663,-1.81092 0.12344,-2.54528 0.215098,-2.76464 0.191289,-0.45782 0.501316,-0.6136 1.305649,-0.65604 0.649903,-0.0343 0.704998,-0.0236 0.904282,0.1757 0.38508,0.38508 0.433378,0.75783 0.434557,3.35391 l 0.0011,2.40257 1.100667,0.0181 c 0.912192,0.015 1.185218,0.0509 1.594439,0.20962 1.13509,0.44019 1.567708,1.21157 1.166044,2.07912 -0.415321,0.89705 -1.278113,1.16214 -2.760515,0.84814 -0.325949,-0.069 -0.718991,-0.12619 -0.873426,-0.127 l -0.28079,-0.001 0.02679,4.1275 c 0.02472,3.80855 0.01503,4.15798 -0.125429,4.52194 -0.19638,0.50888 -0.503327,0.66389 -1.31458,0.66389 -0.510416,0 -0.630082,-0.0299 -0.845718,-0.21135 z m 28.516895,-19.1031 c -0.279676,-0.11152 -0.59271,-0.41108 -0.59271,-0.56719 0,-0.13097 -0.27348,-0.12249 -1.971528,0.0611 -0.886179,0.0958 -1.901707,-0.0151 -2.453614,-0.26805 -1.317671,-0.60387 -2.895568,-2.54423 -3.489865,-4.29153 -0.597577,-1.75695 -0.477051,-3.96438 0.311944,-5.71324 0.816907,-1.81073 2.120261,-3.22925 3.666063,-3.98999 0.904652,-0.44522 1.492393,-0.60556 2.497926,-0.68147 0.694968,-0.0525 0.752145,-0.0711 0.850511,-0.27756 0.07204,-0.15118 0.12337,-0.99937 0.161987,-2.67665 0.05175,-2.2478 0.07168,-2.48913 0.235794,-2.85524 0.315996,-0.70494 1.044479,-0.94927 1.638761,-0.54963 0.499875,0.33616 0.512317,0.46262 0.589082,5.98721 0.108815,7.83108 0.279131,12.06776 0.547985,13.63133 0.162683,0.94611 0.160675,1.68837 -0.0052,1.9252 -0.07122,0.10169 -0.271248,0.22425 -0.4445,0.27237 -0.393283,0.10923 -1.261376,0.10546 -1.542627,-0.007 z m -1.312377,-2.98251 0.423333,-0.098 0.01966,-0.59233 c 0.01081,-0.32578 -0.04634,-2.4771 -0.127,-4.7807 l -0.146656,-4.18837 -0.381,-0.0767 c -0.565458,-0.11379 -1.523273,0.0583 -2.132843,0.38319 -0.903416,0.48152 -1.517321,1.38724 -1.823442,2.69022 -0.187196,0.79678 -0.206726,3.16074 -0.03256,3.94066 0.327094,1.46471 1.188835,2.48316 2.332794,2.75699 0.392476,0.094 1.391879,0.0752 1.867714,-0.0349 z m -23.136854,2.35803 c -0.215857,-0.0938 -0.339365,-0.25075 -0.560574,-0.71233 -0.156046,-0.32562 -0.30275,-0.6648 -0.326009,-0.75374 -0.0408,-0.15602 -0.07386,-0.15346 -0.937763,0.0726 -1.937044,0.50683 -3.89919,0.55672 -5.129175,0.13041 -1.410154,-0.48877 -2.180096,-1.26653 -2.688992,-2.71633 -0.228173,-0.65004 -0.23781,-0.74215 -0.239193,-2.286 -0.0013,-1.45355 0.0177,-1.66961 0.19702,-2.24068 0.574631,-1.82998 1.655429,-3.07697 3.342444,-3.85642 1.220585,-0.56394 2.090702,-0.76957 4.278467,-1.01107 0.621887,-0.0687 1.181995,-0.16739 1.244684,-0.21942 0.06269,-0.052 0.138965,-0.26121 0.169503,-0.46485 0.07729,-0.51543 0.179691,-0.61827 0.730099,-0.73325 0.574792,-0.12008 0.87287,-0.0231 1.006069,0.32721 0.181619,0.47769 0.265308,3.71479 0.229468,8.87581 -0.02005,2.88714 -0.06414,5.31085 -0.09798,5.38603 -0.141682,0.31479 -0.732935,0.41285 -1.218066,0.20204 z m -3.594774,-3.39418 c 1.019783,-0.21064 1.373341,-0.4165 1.639392,-0.95451 0.613122,-1.23987 0.968726,-5.36193 0.579771,-6.72055 -0.15902,-0.55545 -0.579902,-0.62134 -1.708664,-0.26748 -1.900857,0.59591 -3.550728,1.87516 -4.141825,3.21144 -0.372384,0.84183 -0.303549,2.55692 0.137561,3.42741 0.354372,0.69932 0.847921,1.08558 1.669879,1.30687 0.592622,0.15955 1.039841,0.15877 1.823886,-0.003 z m 7.755326,3.35863 -0.349635,-0.15877 -0.0564,-4.34787 c -0.05259,-4.05414 0.0376,-9.44489 0.165006,-9.86305 0.09836,-0.32283 0.52736,-0.4789 1.210257,-0.44032 0.522731,0.0295 0.64211,0.0667 0.835586,0.26019 0.201204,0.2012 0.229863,0.30454 0.263808,0.9513 0.02095,0.39906 0.07403,0.74778 0.117955,0.77493 0.04393,0.0272 0.296288,-0.0641 0.560798,-0.20291 1.391179,-0.72975 3.240242,-1.07942 4.406004,-0.8332 1.739097,0.36731 2.676434,1.71248 2.928696,4.20297 0.06688,0.66031 -0.09222,6.50692 -0.213062,7.82955 -0.102275,1.11939 -0.200548,1.5185 -0.430524,1.74847 -0.152539,0.15254 -0.257831,0.16969 -0.882214,0.14371 -1.130995,-0.0471 -1.023533,0.42348 -1.118505,-4.89785 -0.09845,-5.51644 -0.09177,-5.3239 -0.191134,-5.50956 -0.166467,-0.31104 -0.570679,-0.50327 -1.264628,-0.60141 -1.607803,-0.22737 -3.086463,0.49169 -3.516293,1.70996 -0.09596,0.27198 -0.151455,1.00984 -0.212774,2.82898 -0.133789,3.96912 -0.299601,5.8158 -0.557709,6.21131 -0.250465,0.38379 -1.0702,0.47739 -1.695232,0.19357 z"
       id="path1" /></g></svg>
